HIERARCHY
ROOT Hips
{
	OFFSET 0.00000 0.00000 0.00000
	CHANNELS 6 Xposition Yposition Zposition Zrotation Yrotation Xrotation 
	JOINT LHipJoint
	{
		OFFSET 0 0 0
		CHANNELS 3 Zrotation Yrotation Xrotation
		JOINT LeftUpLeg
		{
			OFFSET 1.44960 -1.75505 0.85172
			CHANNELS 3 Zrotation Yrotation Xrotation
			JOINT LeftLeg
			{
				OFFSET 2.40573 -6.60971 0.00000
				CHANNELS 3 Zrotation Yrotation Xrotation
				JOINT LeftFoot
				{
					OFFSET 2.58773 -7.10974 0.00000
					CHANNELS 3 Zrotation Yrotation Xrotation
					JOINT LeftToeBase
					{
						OFFSET 0.18252 -0.50147 1.77316
						CHANNELS 3 Zrotation Yrotation Xrotation
						End Site
						{
							OFFSET 0.00000 -0.00000 0.92990
						}
					}
				}
			}
		}
	}
	JOINT RHipJoint
	{
		OFFSET 0 0 0
		CHANNELS 3 Zrotation Yrotation Xrotation
		JOINT RightUpLeg
		{
			OFFSET -1.40744 -1.75505 0.85172
			CHANNELS 3 Zrotation Yrotation Xrotation
			JOINT RightLeg
			{
				OFFSET -2.43714 -6.69600 0.00000
				CHANNELS 3 Zrotation Yrotation Xrotation
				JOINT RightFoot
				{
					OFFSET -2.51650 -6.91404 0.00000
					CHANNELS 3 Zrotation Yrotation Xrotation
					JOINT RightToeBase
					{
						OFFSET -0.25383 -0.69740 1.96384
						CHANNELS 3 Zrotation Yrotation Xrotation
						End Site
						{
							OFFSET -0.00000 -0.00000 1.04244
						}
					}
				}
			}
		}
	}
	JOINT LowerBack
	{
		OFFSET 0 0 0
		CHANNELS 3 Zrotation Yrotation Xrotation
		JOINT Spine
		{
			OFFSET 0.00579 2.14458 -0.24367
			CHANNELS 3 Zrotation Yrotation Xrotation
			JOINT Spine1
			{
				OFFSET 0.05899 2.16316 -0.04515
				CHANNELS 3 Zrotation Yrotation Xrotation
				JOINT Neck
				{
					OFFSET 0 0 0
					CHANNELS 3 Zrotation Yrotation Xrotation
					JOINT Neck1
					{
						OFFSET -0.01650 1.59577 0.24841
						CHANNELS 3 Zrotation Yrotation Xrotation
						JOINT Head
						{
							OFFSET -0.01016 1.63072 -0.17782
							CHANNELS 3 Zrotation Yrotation Xrotation
							End Site
							{
								OFFSET -0.00250 1.64111 -0.08717
							}
						}
					}
				}
				JOINT LeftShoulder
				{
					OFFSET 0 0 0
					CHANNELS 3 Zrotation Yrotation Xrotation
					JOINT LeftArm
					{
						OFFSET 3.17745 0.95174 -0.45729
						CHANNELS 3 Zrotation Yrotation Xrotation
						JOINT LeftForeArm
						{
							OFFSET 4.93485 -0.00000 0.00000
							CHANNELS 3 Zrotation Yrotation Xrotation
							JOINT LeftHand
							{
								OFFSET 3.41719 -0.00000 -0.00000
								CHANNELS 3 Zrotation Yrotation Xrotation
								JOINT LeftFingerBase
								{
									OFFSET 0 0 0
									CHANNELS 3 Zrotation Yrotation Xrotation
									JOINT LeftHandIndex1
									{
										OFFSET 0.62410 -0.00000 -0.00000
										CHANNELS 3 Zrotation Yrotation Xrotation
										End Site
										{
											OFFSET 0.50317 -0.00000 -0.00000
										}
									}
								}
								JOINT LThumb
								{
									OFFSET 0 0 0
									CHANNELS 3 Zrotation Yrotation Xrotation
									End Site
									{
										OFFSET 0.51085 -0.00000 0.51085
									}
								}
							}
						}
					}
				}
				JOINT RightShoulder
				{
					OFFSET 0 0 0
					CHANNELS 3 Zrotation Yrotation Xrotation
					JOINT RightArm
					{
						OFFSET -2.87924 1.13038 -0.75204
						CHANNELS 3 Zrotation Yrotation Xrotation
						JOINT RightForeArm
						{
							OFFSET -5.22034 -0.00000 0.00000
							CHANNELS 3 Zrotation Yrotation Xrotation
							JOINT RightHand
							{
								OFFSET -3.41809 -0.00000 -0.00000
								CHANNELS 3 Zrotation Yrotation Xrotation
								JOINT RightFingerBase
								{
									OFFSET 0 0 0
									CHANNELS 3 Zrotation Yrotation Xrotation
									JOINT RightHandIndex1
									{
										OFFSET -0.77534 -0.00000 -0.00000
										CHANNELS 3 Zrotation Yrotation Xrotation
										End Site
										{
											OFFSET -0.62510 -0.00000 -0.00000
										}
									}
								}
								JOINT RThumb
								{
									OFFSET 0 0 0
									CHANNELS 3 Zrotation Yrotation Xrotation
									End Site
									{
										OFFSET -0.63464 -0.00000 0.63464
									}
								}
							}
						}
					}
				}
			}
		}
	}
}
MOTION
Frames: 12
Frame Time: .0083333
0.9342 17.485 -35.0315 0 0 0 0 0 0 -21 0 0 0 0 0 0 0 0 0 0 0 0 0 0 21 0 0 0 0 0 0 0 0 0 0 0 0 0 0 0 0 0 0 0 0 0 0 -16 0 0 21 0 0 11 0 0 0 -8 0 0 0 0 0 0 0 0 0 0 0 0 0 0 0 0 0 0 0 0 8 0 0 0 0 0 0 0 0 0 0 0 0 0 0 0 0 0
0.9342 17.4850 -35.0315 -2.0364 1.8222 6.5781 0.0000 0.0000 0.0000 -19.1236 -11.6328 -11.5998 2.6456 10.0980 29.2947 1.3082 -2.3009 -20.9891 0.0481 1.4151 3.8917 0.0000 0.0000 0.0000 25.6733 5.5985 -10.8799 -1.9827 -8.8299 25.2648 -1.3447 0.8947 -21.6566 -0.0084 -0.5906 1.6229 2.9252 -2.2781 1.0294 2.2602 -2.9341 -1.5565 0.7702 -1.4933 -2.2036 -2.0585 -0.2563 -18.4076 0.3722 0.1320 15.0692 0.4741 -0.0217 7.6695 -0.0000 0.0000 0.0000 -88.4930 8.3421 18.7756 18.3629 -28.6194 -4.7218 -0.0000 -0.0000 5.7667 2.8187 40.9993 1.8501 -7.1250 0.0000 -0.0000 -43.7806 65.8983 -24.0484 -0.0000 0.0000 0.0000 84.9001 -5.9400 -3.3622 -10.6991 17.8255 -1.6826 0.0000 -0.0000 -3.4935 -19.0492 18.0826 -6.1172 7.1250 -0.0000 -0.0000 5.8957 -11.0017 4.6878
0.9348 17.4866 -35.0359 -1.9948 1.6950 6.6231 0.0000 0.0000 0.0000 -19.1748 -11.7215 -11.6248 2.6470 10.1004 29.3024 1.3002 -2.2935 -20.9241 0.0758 1.7760 4.8870 0.0000 0.0000 0.0000 25.6191 5.8383 -10.8053 -1.9673 -8.7977 25.1644 -1.3270 0.6378 -21.5881 -0.0262 -1.0455 2.8741 2.8856 -2.2708 1.0230 2.2480 -2.9250 -1.5815 0.7799 -1.4885 -2.2242 -2.2673 -0.2686 -18.4761 0.5252 0.1448 15.3909 0.5613 -0.0149 7.7878 0.0000 -0.0000 0.0000 -88.5527 8.4480 18.7090 18.4249 -28.6978 -4.7515 -0.0000 -0.0000 5.8895 2.9076 40.9741 1.9075 -7.1250 0.0000 -0.0000 -43.6549 65.9064 -23.9755 0.0000 -0.0000 0.0000 84.9132 -5.9729 -3.3262 -10.7258 17.8667 -1.6908 0.0000 -0.0000 -3.4614 -18.7061 17.8602 -5.9287 7.1250 -0.0000 -0.0000 6.1098 -11.2742 4.8256
0.9334 17.4857 -35.0391 -2.1918 1.6891 6.4797 0.0000 0.0000 0.0000 -18.9743 -11.4910 -11.5151 2.6346 10.0786 29.2316 1.3162 -2.3143 -21.0524 0.0365 1.2329 3.3898 0.0000 0.0000 0.0000 25.8519 5.9425 -10.6643 -1.9849 -8.8346 25.2793 -1.3534 0.6490 -21.8013 -0.0281 -1.0824 2.9757 3.0862 -2.2975 1.2401 2.2980 -2.9428 -1.6361 0.7321 -1.5019 -2.4106 -1.6378 -0.3239 -17.9466 -0.3114 0.0475 15.1491 0.1696 -0.1057 7.6189 -0.0000 0.0000 0.0000 -88.5710 8.6788 18.6642 18.5082 -28.8030 -4.7916 -0.0000 -0.0000 5.7724 2.6965 41.1864 1.7764 -7.1250 0.0000 -0.0000 -44.1971 65.9949 -24.4110 -0.0000 0.0000 0.0000 84.9324 -5.9824 -3.3260 -10.6661 17.7746 -1.6726 0.0000 -0.0000 -3.3645 -18.9046 17.9678 -6.0306 7.1250 -0.0000 -0.0000 5.9847 -11.1386 4.7424
0.9374 17.4851 -35.0435 -1.8357 1.6513 6.5358 0.0000 0.0000 0.0000 -19.3885 -11.6333 -11.4927 2.6256 10.0627 29.1800 1.3036 -2.3548 -20.9386 0.0690 1.6947 4.6626 0.0000 0.0000 0.0000 25.4093 5.6667 -10.8796 -1.9936 -8.8527 25.3355 -1.3495 0.9947 -21.6665 -0.0198 -0.9090 2.4984 2.7758 -2.2954 1.2449 2.1849 -2.9482 -1.6869 0.7904 -1.5009 -2.4553 -2.0775 -0.3169 -18.0377 0.3580 0.0482 15.1293 0.4626 -0.0647 7.6272 -0.0000 -0.0000 0.0000 -88.5623 8.8126 18.7077 18.5739 -28.8858 -4.8233 -0.0000 -0.0000 5.7767 2.1308 41.2228 1.4045 -7.1250 0.0000 -0.0000 -44.7967 65.8541 -24.6609 -0.0000 -0.0000 0.0000 84.9590 -6.1320 -2.9762 -10.7697 17.9344 -1.7043 0.0000 -0.0000 -3.7628 -18.4145 18.2569 -5.9545 7.1250 -0.0000 -0.0000 6.3208 -10.8986 5.0433
0.9376 17.4780 -35.0427 -1.7785 1.6291 6.5453 0.0000 0.0000 0.0000 -19.4687 -11.6118 -11.4857 2.6218 10.0560 29.1583 1.3013 -2.0739 -20.9842 0.0489 1.4264 3.9230 0.0000 0.0000 0.0000 25.3366 5.5327 -10.9639 -2.0010 -8.8682 25.3840 -1.3380 1.0671 -21.5515 -0.0172 -0.8478 2.3301 2.6417 -2.2530 1.0885 2.1949 -2.9038 -1.6137 0.8643 -1.4750 -2.2841 -1.6104 -0.3434 -17.9673 -0.3129 0.0141 15.0925 0.1607 -0.1198 7.6039 0.0000 0.0000 0.0000 -88.5941 8.5659 18.7860 18.4467 -28.7254 -4.7620 -0.0000 -0.0000 5.9459 2.2808 41.3434 1.5071 -7.1250 0.0000 -0.0000 -44.8478 65.9827 -24.8215 0.0000 0.0000 0.0000 84.9039 -5.9119 -3.0313 -10.6751 17.7886 -1.6753 0.0000 -0.0000 -3.9480 -18.5766 18.1873 -5.9884 7.1250 -0.0000 -0.0000 6.2112 -10.9510 4.9480
0.9401 17.4780 -35.0478 -1.8572 1.6208 6.5526 0.0000 0.0000 0.0000 -19.3737 -11.7197 -11.5014 2.6241 10.0601 29.1716 1.2925 -2.1643 -20.8898 0.0684 1.6874 4.6425 0.0000 0.0000 0.0000 25.4222 5.5709 -10.9887 -2.0042 -8.8748 25.4045 -1.3499 1.0771 -21.6459 -0.0161 -0.8197 2.2529 2.8216 -2.2844 1.2089 2.1732 -2.9321 -1.7514 0.7528 -1.4945 -2.5044 -2.0565 -0.2407 -17.8613 0.3663 0.1411 15.2979 0.4730 -0.0196 7.6515 -0.0000 -0.0000 0.0000 -88.5421 8.9092 18.8188 18.5339 -28.8354 -4.8040 -0.0000 -0.0000 5.8101 2.3314 41.2247 1.5369 -7.1250 0.0000 -0.0000 -44.6082 65.9144 -24.5982 -0.0000 -0.0000 0.0000 84.9946 -6.1306 -2.8295 -10.7890 17.9641 -1.7103 0.0000 -0.0000 -3.7540 -18.4553 17.6979 -5.7930 7.1250 -0.0000 -0.0000 6.2670 -11.4722 4.9257
0.9395 17.4784 -35.0470 -2.0125 1.5683 6.4713 0.0000 0.0000 0.0000 -19.2246 -11.6028 -11.4594 2.6316 10.0734 29.2147 1.3136 -1.9628 -21.1136 0.0458 1.3819 3.8003 0.0000 0.0000 0.0000 25.5904 5.7268 -10.8314 -2.0004 -8.8668 25.3796 -1.3469 0.9803 -21.6493 -0.0217 -0.9503 2.6122 2.8911 -2.2427 1.1285 2.2531 -2.8804 -1.6409 0.7872 -1.4675 -2.3443 -2.0064 -0.2928 -18.0012 0.3359 0.0662 15.3386 0.4462 -0.0555 7.6900 -0.0000 -0.0000 0.0000 -88.6070 8.7216 18.8178 18.4856 -28.7745 -4.7807 -0.0000 -0.0000 5.9392 1.8425 41.6920 1.2257 -7.1250 0.0000 -0.0000 -45.8330 66.0951 -25.5798 -0.0000 -0.0000 0.0000 85.0134 -5.9686 -2.8629 -10.8441 18.0489 -1.7273 0.0000 -0.0000 -4.0083 -18.1584 17.8270 -5.7338 7.1250 -0.0000 -0.0000 6.4685 -11.3735 5.0993
0.9358 17.4768 -35.0537 -2.2702 1.5385 6.4769 0.0000 0.0000 0.0000 -18.9091 -11.6335 -11.5214 2.6388 10.0860 29.2556 1.2960 -2.0934 -20.9356 0.0612 1.5958 4.3900 0.0000 0.0000 0.0000 25.9033 5.7585 -10.8194 -1.9911 -8.8476 25.3197 -1.3416 0.9371 -21.6189 -0.0157 -0.8100 2.2263 3.2152 -2.3160 1.1645 2.2734 -2.9678 -1.6562 0.6334 -1.5169 -2.3972 -1.9536 -0.2813 -17.7610 0.3649 0.0560 15.1126 0.4455 -0.0530 7.5739 -0.0000 0.0000 0.0000 -88.5407 8.7958 18.6285 18.4804 -28.7680 -4.7782 -0.0000 -0.0000 6.0016 1.8648 41.3271 1.2317 -7.1250 0.0000 -0.0000 -45.2178 65.8490 -24.9295 -0.0000 0.0000 0.0000 85.0983 -5.9510 -2.5972 -10.8155 18.0050 -1.7185 0.0000 -0.0000 -4.0540 -18.2468 17.9786 -5.8105 7.1250 -0.0000 -0.0000 6.4174 -11.2065 5.0807
0.9365 17.4758 -35.0534 -2.0789 1.6546 6.4593 0.0000 0.0000 0.0000 -19.1252 -11.5933 -11.5178 2.6398 10.0878 29.2614 1.3035 -2.1096 -20.9941 0.0274 1.0695 2.9400 0.0000 0.0000 0.0000 25.6943 5.6878 -10.8090 -1.9914 -8.8481 25.3213 -1.3490 0.9496 -21.6752 -0.0177 -0.8600 2.3638 2.9413 -2.3126 1.1439 2.2782 -2.9702 -1.6742 0.7899 -1.5134 -2.3895 -2.0836 -0.3174 -17.7912 0.5120 0.0141 15.2940 0.5108 -0.0672 7.6396 -0.0000 0.0000 0.0000 -88.6248 8.8010 18.8723 18.5171 -28.8142 -4.7959 -0.0000 -0.0000 6.0098 1.8497 41.5606 1.2274 -7.1250 0.0000 -0.0000 -45.6109 66.0065 -25.3444 -0.0000 0.0000 0.0000 85.0810 -5.9271 -2.8482 -10.7908 17.9669 -1.7108 0.0000 -0.0000 -3.9714 -18.0846 17.9369 -5.7428 7.1250 -0.0000 -0.0000 6.5221 -11.2688 5.1562
0.9400 17.4809 -35.0593 -1.9678 1.4955 6.5374 0.0000 0.0000 0.0000 -19.2503 -11.6787 -11.6119 2.6490 10.1039 29.3140 1.2971 -2.1132 -20.9402 0.0694 1.6994 4.6755 0.0000 0.0000 0.0000 25.5312 5.8342 -10.8638 -1.9870 -8.8389 25.2928 -1.3226 0.8571 -21.4855 -0.0290 -1.0999 3.0237 2.8817 -2.2880 1.1065 2.2278 -2.9408 -1.6957 0.7694 -1.4984 -2.3897 -2.0992 -0.3257 -17.8198 0.4626 0.0170 15.2943 0.4974 -0.0717 7.6446 -0.0000 0.0000 0.0000 -88.6312 8.8363 18.7131 18.5496 -28.8552 -4.8115 -0.0000 -0.0000 6.0218 1.5612 41.4720 1.0341 -7.1250 0.0000 -0.0000 -45.7398 65.8603 -25.2819 -0.0000 0.0000 0.0000 85.0950 -5.8937 -2.7975 -10.7745 17.9418 -1.7058 0.0000 -0.0000 -3.9321 -17.5606 18.3977 -5.7037 7.1250 -0.0000 -0.0000 6.8865 -10.8555 5.5073
0.9391 17.4764 -35.0585 -1.9367 1.4301 6.4178 0.0000 0.0000 0.0000 -19.3325 -11.5338 -11.4831 2.6447 10.0964 29.2895 1.3033 -1.8932 -21.0448 0.0312 1.1403 3.1350 0.0000 0.0000 0.0000 25.4809 5.5400 -10.8516 -1.9926 -8.8506 25.3291 -1.3345 1.2347 -21.4754 -0.0315 -1.1458 3.1499 2.8612 -2.3086 1.1811 2.1984 -2.9673 -1.6565 0.7536 -1.5112 -2.3921 -1.7818 -0.2847 -17.6013 0.1245 0.0486 15.1437 0.3373 -0.0703 7.5571 0.0000 -0.0000 0.0000 -88.6056 8.8455 18.7911 18.5705 -28.8814 -4.8216 -0.0000 -0.0000 6.0088 1.8785 41.9486 1.2560 -7.1250 0.0000 -0.0000 -46.2249 66.2819 -26.0283 0.0000 -0.0000 0.0000 85.1481 -5.8922 -2.5388 -10.8165 18.0064 -1.7188 0.0000 -0.0000 -4.0452 -17.6922 18.0878 -5.6560 7.1250 -0.0000 -0.0000 6.7866 -11.1591 5.3837
